<?xml version="1.0" encoding="utf-8"?>
<svg version="1.1" xmlns="http://www.w3.org/2000/svg" xmlns:xlink="http://www.w3.org/1999/xlink" x="0px" y="0px"
	 viewBox="0 0 1080 1080" xml:space="preserve">
<style type="text/css">
	.st1{fill:#3AC4BE;}
	.st5{fill:#FFC200;}
</style>
<g>
	<path class="st1" d="M313.2,898.4l0.3-0.2c-0.3-0.2-0.5-0.2-0.5-0.2C313.1,898.1,313.1,898.2,313.2,898.4z"/>
	<path class="st1" d="M712.7,669.9l-2.8-198.4c-0.5-34.8-5.3-67.4-14.2-101c0,0,69.8-7,110.2,0c0,0,24.3,155.7,25.6,289.7l0,0
		l-1.5,61.7l-0.1,0.9c0.1-0.1,0.1-0.2,0.2-0.3c-2.1,35.3-6.8,66.1-15.1,88c-55.9,146.4-164.5,181.7-265.5,179.4l0.4,0.1
		c-0.4,0-42.6-1.4-91.5-12.8C414,966.9,354.3,945.2,322,901c9.5,4.3,49.2,21.6,86.4,26.6c65.1,8.7,116.3,4.2,156.6-8.4
		c0,0,0.1,0,0.3-0.1c53.9-16.6,98.9-54.5,123.3-105.3C705.5,778.5,711.5,734.8,712.7,669.9z"/>
	<path class="st1" d="M680,706.6V450.5c-13.5,0.6-28.5,2.7-43.1,5.4-33.7,6.2-69,16.3-75.4,18.2v235.2v2.1
		c0,38.1-25.1,70.3-59.6,81.1c-65.9,87.4-120.6,92.6-122.7,92.8c8.6,3.3,17.6,5.8,26.7,7.2C691.8,938.6,680,706.6,680,706.6z"/>
	<path class="st5" d="M476.6,796.2L476.6,796.2c-46.9,0-84.9-38-84.9-84.9v-2.1v-33.4c-0.5-7.4-0.1-15.5,0-23.3v-8.4
		c-0.4-16.2-0.3-31.3,0-44.5v-47.5v-1.4c-80.9,58.7-132,177.5-132,177.5s-7.7,105.9,119.5,157c0,0,55.5-3.7,122.7-92.8
		C493.9,794.9,485.4,796.2,476.6,796.2z"/>
</g>
</svg>
